<?xml version="1.0" standalone="no"?>
<!DOCTYPE svg PUBLIC "-//W3C//DTD SVG 20010904//EN"
 "http://www.w3.org/TR/2001/REC-SVG-20010904/DTD/svg10.dtd">
<svg version="1.0" xmlns="http://www.w3.org/2000/svg"
 width="516.000000pt" height="484.000000pt" viewBox="0 0 516.000000 484.000000"
 preserveAspectRatio="xMidYMid meet">

<g transform="translate(0.000000,484.000000) scale(0.100000,-0.100000)"
fill="#000000" stroke="none">
<path d="M2255 4613 c-527 -65 -952 -265 -1314 -617 -262 -256 -440 -537 -557
-881 -73 -212 -103 -383 -111 -630 -6 -198 5 -347 39 -510 11 -55 21 -106 22
-114 1 -15 -9 -19 -137 -52 -48 -12 -87 -25 -87 -29 0 -6 187 -181 344 -322
l39 -35 -20 -59 c-12 -32 -50 -143 -87 -246 -36 -104 -63 -188 -60 -188 5 0
44 10 269 70 39 10 140 37 225 59 224 59 359 95 585 157 110 30 439 117 730
194 292 78 620 165 730 195 110 30 353 95 540 145 485 128 783 208 910 242 61
17 274 74 474 127 201 54 366 102 367 107 2 5 -18 25 -44 45 -26 21 -99 81
-162 135 -64 55 -132 113 -153 129 l-37 30 94 255 c51 140 93 256 92 257 -1 1
-207 -52 -289 -75 -29 -8 -39 -8 -42 1 -3 7 -23 66 -46 132 -87 256 -216 485
-392 695 -79 95 -254 261 -359 340 -327 247 -677 390 -1078 440 -78 9 -416 12
-485 3z m406 -69 c42 -12 66 -28 109 -72 30 -32 65 -78 78 -103 l22 -47 93
-23 c123 -30 229 -69 367 -135 182 -87 341 -197 485 -335 55 -53 90 -79 106
-79 51 -1 167 -31 226 -60 67 -33 144 -110 168 -167 34 -82 24 -207 -25 -303
l-20 -39 25 -57 c21 -47 65 -180 65 -196 0 -3 -66 -22 -147 -43 -219 -55 -360
-92 -528 -140 -82 -23 -175 -48 -205 -55 -60 -13 -114 -28 -260 -70 -52 -16
-201 -56 -330 -90 -129 -34 -282 -75 -340 -91 -96 -26 -711 -190 -975 -260
-60 -16 -166 -43 -234 -60 -174 -42 -373 -96 -456 -123 -100 -33 -285 -80
-291 -74 -10 11 -44 211 -55 325 -26 278 22 612 127 876 35 87 35 89 23 156
-19 107 -8 234 25 308 54 120 144 173 291 173 l71 0 49 51 c175 178 456 351
721 443 110 38 313 86 362 86 17 0 32 4 34 10 8 24 122 129 166 153 49 27 139
55 178 56 11 1 45 -6 75 -15z m1214 -2034 c9 -39 3 -46 -50 -59 -25 -6 -45
-15 -45 -20 0 -5 20 -83 45 -173 25 -89 45 -168 45 -175 0 -11 -77 -39 -85
-31 -2 2 -24 82 -50 178 -26 96 -48 176 -50 178 -1 2 -24 -2 -49 -9 -53 -13
-61 -9 -70 37 l-7 31 133 35 c169 46 175 46 183 8z m-327 -102 c3 -36 2 -38
-27 -38 -48 0 -105 -28 -124 -59 -35 -60 -14 -174 41 -224 29 -27 90 -32 136
-13 51 21 52 21 67 -15 11 -28 11 -33 -7 -46 -25 -18 -110 -43 -148 -43 -149
1 -254 212 -181 363 32 68 122 119 200 114 39 -2 40 -3 43 -39z m-351 -273
c62 -104 113 -195 113 -202 0 -10 -56 -33 -80 -33 -3 0 -19 23 -35 51 -29 48
-32 50 -64 44 -77 -14 -81 -19 -81 -84 l0 -60 -37 -10 c-21 -6 -41 -11 -45
-11 -9 0 -11 404 -2 448 5 25 13 32 43 40 69 19 68 20 188 -183z m-413 83 c37
-16 69 -87 61 -132 -4 -19 -13 -40 -21 -47 -19 -16 -18 -37 4 -43 9 -3 23 -16
31 -28 22 -35 81 -139 81 -144 0 -2 -19 -8 -42 -15 -48 -13 -45 -15 -101 81
-29 50 -36 55 -70 58 -44 4 -44 2 -17 -93 11 -38 20 -75 20 -82 0 -11 -77 -30
-86 -21 -6 7 -114 403 -114 420 0 20 113 56 177 57 29 1 63 -4 77 -11z m-316
-107 c-3 -20 -12 -26 -63 -39 -33 -8 -64 -18 -69 -23 -7 -6 10 -99 18 -99 1 0
32 9 69 19 l68 20 9 -25 c20 -51 18 -53 -92 -80 -31 -7 -33 -16 -17 -80 9 -34
15 -43 28 -40 147 43 146 43 156 -9 l6 -30 -122 -33 c-67 -18 -124 -31 -126
-29 -2 2 -12 37 -23 78 -60 225 -90 342 -90 352 0 7 48 26 113 43 102 29 113
30 125 15 7 -9 12 -27 10 -40z m-295 -28 c3 -5 8 -22 12 -40 6 -32 6 -33 -40
-44 -26 -7 -49 -18 -52 -25 -2 -7 16 -90 42 -184 26 -94 46 -172 44 -174 -2
-2 -23 -8 -46 -13 -36 -9 -43 -8 -47 6 -3 9 -24 86 -47 171 -23 85 -45 159
-50 165 -6 6 -26 5 -55 -3 -26 -7 -49 -10 -52 -8 -2 3 -5 22 -6 42 l-1 37 135
37 c148 42 157 44 163 33z m-292 -313 c39 -150 53 -217 45 -222 -6 -3 -27 -9
-46 -12 -34 -7 -37 -5 -132 101 -53 59 -106 119 -118 133 -18 21 -21 22 -15 5
21 -64 75 -266 75 -279 0 -9 -4 -16 -9 -16 -5 0 -22 -3 -39 -6 -29 -6 -30 -5
-45 47 -66 241 -98 371 -94 383 3 8 25 17 48 21 48 8 40 15 212 -180 33 -38
57 -61 53 -50 -10 25 -76 266 -76 276 0 9 36 17 64 15 17 -1 28 -32 77 -216z
m-461 106 c0 -3 25 -98 55 -211 30 -114 55 -211 55 -215 0 -7 -80 -34 -85 -28
-3 3 -48 168 -101 368 -18 69 -18 78 4 83 23 6 72 8 72 3z"/>
<path d="M3047 2139 c3 -46 6 -85 7 -86 1 -1 19 3 39 9 l37 11 -36 66 c-20 36
-40 70 -44 75 -5 4 -6 -29 -3 -75z"/>
<path d="M2661 2149 c-20 -8 -22 -14 -16 -45 13 -73 23 -87 53 -80 61 15 77
79 30 119 -23 19 -32 20 -67 6z"/>
<path d="M4630 2009 c-36 -11 -126 -35 -200 -55 -74 -20 -173 -46 -220 -59
-47 -12 -164 -43 -260 -69 -96 -25 -290 -77 -430 -115 -545 -147 -946 -255
-1200 -323 -259 -69 -465 -125 -840 -226 -102 -28 -297 -80 -435 -117 -137
-37 -257 -71 -265 -76 -12 -6 11 -34 105 -127 183 -180 326 -282 563 -402 217
-109 428 -176 684 -217 160 -25 547 -25 708 0 425 68 810 242 1129 511 92 77
233 229 322 347 166 218 319 539 394 827 27 102 29 122 18 121 -5 0 -37 -9
-73 -20z m-2013 -743 c27 -24 28 -27 28 -123 0 -102 -19 -163 -49 -163 -19 0
-26 32 -26 131 0 55 -5 92 -13 104 -13 17 -16 16 -49 -16 -49 -47 -70 -106
-76 -220 -6 -117 13 -214 62 -315 30 -63 92 -134 116 -134 20 0 33 49 38 142
5 97 5 98 30 98 45 0 62 -26 62 -95 0 -138 -74 -207 -206 -192 -88 10 -163 88
-213 221 -27 73 -37 192 -22 271 23 126 105 249 196 294 53 27 88 26 122 -3z
m625 -8 c10 -9 21 -50 31 -126 9 -62 27 -150 39 -195 l23 -82 5 123 c5 115 7
125 29 143 85 69 196 -65 196 -236 0 -52 -5 -78 -18 -99 -22 -32 -80 -60 -108
-51 -19 6 -19 8 7 32 25 23 26 27 22 106 -5 76 -35 188 -57 210 -20 20 -35
-41 -39 -156 -4 -111 -3 -121 18 -149 18 -25 20 -32 9 -39 -8 -5 -25 -7 -39
-3 -103 23 -153 142 -205 492 l-7 42 39 0 c22 0 46 -6 55 -12z m-463 -35 c19
-15 27 -49 56 -223 40 -235 62 -316 105 -383 16 -26 30 -50 30 -52 0 -11 -53
-4 -80 10 -69 35 -107 126 -144 337 -45 255 -50 309 -35 319 22 14 45 11 68
-8z m208 -215 c6 -5 15 -35 18 -66 9 -79 33 -200 44 -220 10 -17 26 97 22 153
-8 107 -11 100 41 103 55 4 62 -5 73 -88 4 -30 18 -82 31 -116 13 -33 24 -64
24 -67 0 -4 -19 -7 -43 -7 -47 0 -77 22 -95 70 -9 22 -10 19 -17 -30 -4 -31
-5 -65 -3 -75 8 -51 -99 -17 -126 39 -14 30 -36 128 -51 226 -4 25 -11 53 -17
63 -17 33 63 45 99 15z"/>
</g>
</svg>
